STARTFONT 2.1
FONT -Adobe-ITC Souvenir-Demi-I-Normal--20-140-100-100-P-115-ISO8859-1
SIZE 14 100 100
FONTBOUNDINGBOX 27 22 -3 -4

STARTPROPERTIES 30
FOUNDRY "Adobe"
FAMILY_NAME "ITC Souvenir"
WEIGHT_NAME "Demi"
SLANT "I"
SETWIDTH_NAME "Normal"
ADD_STYLE_NAME ""
PIXEL_SIZE 20
POINT_SIZE 140
RESOLUTION_X 100
RESOLUTION_Y 100
SPACING "P"
AVERAGE_WIDTH 115
CHARSET_REGISTRY "ISO8859"
CHARSET_ENCODING "1"
CAP_HEIGHT 14
X_HEIGHT 9
FACE_NAME "ITC Souvenir Demi Italic"
COPYRIGHT "Copyright (c) 1984, 1987 Adobe Systems Incorporated. All Rights Reserved. Copyright (c) 1988, 1991 Digital Equipment Corporation. All Rights Reserved."
NOTICE "ITC Souvenir is a registered trademark of International Typeface Corporation.  "
_DEC_DEVICE_FONTNAMES "PS=Souvenir-DemiItalic"
_DEC_PRODUCTINFO "DECwindows Fonts V2.2, 07-Nov-1991"
RELATIVE_SETWIDTH 50
RELATIVE_WEIGHT 60
CHARSET_COLLECTIONS "ASCII ISO8859-1 ADOBE-STANDARD"
FULL_NAME "ITC Souvenir Demi Italic"
WEIGHT 10
QUAD_WIDTH 12
DEFAULT_CHAR 32
FONT_DESCENT 4
FONT_ASCENT 16
ENDPROPERTIES

CHARS 191

STARTCHAR space
ENCODING 32
SWIDTH 340 0
DWIDTH 6 0
BBX 1 1 0 0
BITMAP
00
ENDCHAR

STARTCHAR exclam
ENCODING 33
SWIDTH 380 0
DWIDTH 7 0
BBX 6 14 0 0
BITMAP
18
3C
3C
38
38
38
30
30
30
00
60
F0
F0
60
ENDCHAR

STARTCHAR quotedbl
ENCODING 34
SWIDTH 580 0
DWIDTH 10 0
BBX 7 6 2 8
BITMAP
66
66
66
CC
CC
CC
ENDCHAR

STARTCHAR numbersign
ENCODING 35
SWIDTH 660 0
DWIDTH 12 0
BBX 12 13 0 0
BITMAP
0CC0
0CC0
0CC0
0CC0
7FF0
1980
1980
1980
FFE0
3300
3300
3300
3300
ENDCHAR

STARTCHAR dollar
ENCODING 36
SWIDTH 680 0
DWIDTH 12 0
BBX 11 16 0 -1
BITMAP
0300
0300
0FC0
1CE0
3860
3800
3C00
1F00
0F80
03C0
01C0
C1C0
E380
7E00
1800
1800
ENDCHAR

STARTCHAR percent
ENCODING 37
SWIDTH 900 0
DWIDTH 17 0
BBX 16 14 0 0
BITMAP
1C30
6630
6660
C660
CCC0
CCC0
7180
018E
0333
0333
0663
0666
0C66
0C38
ENDCHAR

STARTCHAR ampersand
ENCODING 38
SWIDTH 880 0
DWIDTH 16 0
BBX 15 14 0 0
BITMAP
03E0
0730
0E30
0E30
0E60
0780
0F1E
3B8C
7188
E1D0
E0E0
E0E0
71FC
3E38
ENDCHAR

STARTCHAR quoteright
ENCODING 39
SWIDTH 320 0
DWIDTH 6 0
BBX 4 6 1 8
BITMAP
60
F0
F0
60
40
80
ENDCHAR

STARTCHAR parenleft
ENCODING 40
SWIDTH 360 0
DWIDTH 8 0
BBX 7 17 0 -3
BITMAP
06
0C
18
38
38
70
70
70
E0
E0
E0
E0
E0
70
70
30
18
ENDCHAR

STARTCHAR parenright
ENCODING 41
SWIDTH 360 0
DWIDTH 8 0
BBX 7 17 -1 -3
BITMAP
30
18
1C
1C
0E
0E
0E
0E
0E
1C
1C
1C
38
38
30
60
C0
ENDCHAR

STARTCHAR asterisk
ENCODING 42
SWIDTH 680 0
DWIDTH 12 0
BBX 7 7 2 7
BITMAP
18
18
D6
FE
38
6C
6C
ENDCHAR

STARTCHAR plus
ENCODING 43
SWIDTH 660 0
DWIDTH 12 0
BBX 10 10 0 1
BITMAP
0C00
0C00
0C00
0C00
FFC0
FFC0
0C00
0C00
0C00
0C00
ENDCHAR

STARTCHAR comma
ENCODING 44
SWIDTH 340 0
DWIDTH 6 0
BBX 4 6 0 -2
BITMAP
60
F0
F0
60
40
80
ENDCHAR

STARTCHAR minus
ENCODING 45
SWIDTH 660 0
DWIDTH 12 0
BBX 11 2 0 5
BITMAP
FFE0
FFE0
ENDCHAR

STARTCHAR period
ENCODING 46
SWIDTH 340 0
DWIDTH 6 0
BBX 4 4 0 0
BITMAP
60
F0
F0
60
ENDCHAR

STARTCHAR slash
ENCODING 47
SWIDTH 420 0
DWIDTH 8 0
BBX 10 17 -2 -3
BITMAP
00C0
00C0
0180
0180
0300
0300
0600
0600
0C00
0C00
1800
1800
3000
3000
6000
6000
C000
ENDCHAR

STARTCHAR zero
ENCODING 48
SWIDTH 680 0
DWIDTH 12 0
BBX 11 14 0 0
BITMAP
0780
1DC0
38E0
70E0
70E0
70E0
E0E0
E0E0
E1C0
E1C0
E1C0
E380
7700
3C00
ENDCHAR

STARTCHAR one
ENCODING 49
SWIDTH 680 0
DWIDTH 12 0
BBX 7 14 1 0
BITMAP
0E
3E
0E
0E
0E
1C
1C
1C
1C
38
38
38
38
FE
ENDCHAR

STARTCHAR two
ENCODING 50
SWIDTH 680 0
DWIDTH 12 0
BBX 11 14 0 0
BITMAP
0FC0
39E0
30E0
00E0
00E0
00C0
01C0
0380
0F00
1C00
3800
7040
FFC0
FF80
ENDCHAR

STARTCHAR three
ENCODING 51
SWIDTH 680 0
DWIDTH 12 0
BBX 10 14 0 0
BITMAP
0F80
3BC0
31C0
01C0
01C0
0380
0F00
0380
01C0
01C0
61C0
E380
E380
7E00
ENDCHAR

STARTCHAR four
ENCODING 52
SWIDTH 680 0
DWIDTH 12 0
BBX 10 14 0 0
BITMAP
01C0
03C0
07C0
0DC0
19C0
1380
3380
6380
4380
C700
FFC0
0700
0700
0F80
ENDCHAR

STARTCHAR five
ENCODING 53
SWIDTH 680 0
DWIDTH 12 0
BBX 11 14 0 0
BITMAP
1FE0
1FC0
1800
3000
3000
7F00
6380
01C0
01C0
01C0
61C0
E380
E380
7E00
ENDCHAR

STARTCHAR six
ENCODING 54
SWIDTH 680 0
DWIDTH 12 0
BBX 11 14 0 0
BITMAP
03E0
0FC0
1C00
3800
7000
7F00
F3C0
E1C0
E1C0
E1C0
E1C0
E380
7700
3C00
ENDCHAR

STARTCHAR seven
ENCODING 55
SWIDTH 680 0
DWIDTH 12 0
BBX 10 14 1 0
BITMAP
FFC0
FFC0
8180
0380
0300
0700
0E00
0E00
1C00
3C00
3800
7800
F000
F000
ENDCHAR

STARTCHAR eight
ENCODING 56
SWIDTH 680 0
DWIDTH 12 0
BBX 11 14 0 0
BITMAP
0FC0
1CE0
3860
3860
3CC0
1F80
1F00
3F80
73C0
E1C0
E1C0
E1C0
7380
3E00
ENDCHAR

STARTCHAR nine
ENCODING 57
SWIDTH 680 0
DWIDTH 12 0
BBX 11 14 0 0
BITMAP
0780
1DC0
38E0
70E0
70E0
70E0
70E0
79E0
1FC0
01C0
0380
0700
7E00
F800
ENDCHAR

STARTCHAR colon
ENCODING 58
SWIDTH 320 0
DWIDTH 6 0
BBX 5 9 0 0
BITMAP
30
78
78
30
00
60
F0
F0
60
ENDCHAR

STARTCHAR semicolon
ENCODING 59
SWIDTH 340 0
DWIDTH 6 0
BBX 5 11 0 -2
BITMAP
30
78
78
30
00
60
F0
F0
60
40
80
ENDCHAR

STARTCHAR less
ENCODING 60
SWIDTH 660 0
DWIDTH 12 0
BBX 11 11 0 1
BITMAP
0060
01E0
0780
1E00
7800
E000
7800
1E00
0780
01E0
0060
ENDCHAR

STARTCHAR equal
ENCODING 61
SWIDTH 660 0
DWIDTH 12 0
BBX 10 5 0 4
BITMAP
FFC0
FFC0
0000
FFC0
FFC0
ENDCHAR

STARTCHAR greater
ENCODING 62
SWIDTH 660 0
DWIDTH 12 0
BBX 11 11 0 1
BITMAP
C000
F000
3C00
0F00
03C0
00E0
03C0
0F00
3C00
F000
C000
ENDCHAR

STARTCHAR question
ENCODING 63
SWIDTH 520 0
DWIDTH 10 0
BBX 9 14 0 0
BITMAP
3E00
6700
C380
C380
0380
0700
1C00
3000
3000
0000
6000
F000
F000
6000
ENDCHAR

STARTCHAR at
ENCODING 64
SWIDTH 860 0
DWIDTH 16 0
BBX 14 14 1 0
BITMAP
07C0
1830
2008
4768
4CE4
8C64
9864
98C4
98C8
99D0
8EE0
4008
3030
0FC0
ENDCHAR

STARTCHAR A
ENCODING 65
SWIDTH 760 0
DWIDTH 14 0
BBX 14 14 -1 0
BITMAP
01C0
03C0
03E0
06E0
06E0
0CE0
0C70
1870
1FF0
3070
3038
6038
6038
F07C
ENDCHAR

STARTCHAR B
ENCODING 66
SWIDTH 780 0
DWIDTH 14 0
BBX 13 14 0 0
BITMAP
3FF0
1C78
1C38
1C38
1C70
38E0
3BC0
3FF0
3878
7038
7038
7078
70F0
FFC0
ENDCHAR

STARTCHAR C
ENCODING 67
SWIDTH 780 0
DWIDTH 14 0
BBX 13 14 0 0
BITMAP
07F0
1E38
3818
7010
7000
E000
E000
E000
E000
E000
E000
7030
78E0
1F80
ENDCHAR

STARTCHAR D
ENCODING 68
SWIDTH 860 0
DWIDTH 16 0
BBX 15 14 0 0
BITMAP
3FF0
1C3C
1C1C
1C0E
1C0E
380E
380E
380E
380E
701C
701C
7038
70F0
FFC0
ENDCHAR

STARTCHAR E
ENCODING 69
SWIDTH 700 0
DWIDTH 13 0
BBX 12 14 0 0
BITMAP
3FF0
1C30
1C10
1C00
1C00
3840
3FC0
3840
3800
7000
7000
7020
7060
FFE0
ENDCHAR

STARTCHAR F
ENCODING 70
SWIDTH 640 0
DWIDTH 12 0
BBX 12 14 0 0
BITMAP
3FF0
1C30
1C10
1C00
1C00
3840
3FC0
3840
3800
7000
7000
7000
7000
F800
ENDCHAR

STARTCHAR G
ENCODING 71
SWIDTH 820 0
DWIDTH 14 0
BBX 13 14 0 0
BITMAP
07F0
1E38
3818
7010
7000
E000
E000
E0F8
E038
E038
E038
7070
79F0
1F80
ENDCHAR

STARTCHAR H
ENCODING 72
SWIDTH 880 0
DWIDTH 16 0
BBX 15 14 0 0
BITMAP
3E3E
1C1C
1C1C
1C1C
1C1C
3838
3FF8
3838
3838
7070
7070
7070
7070
F8F8
ENDCHAR

STARTCHAR I
ENCODING 73
SWIDTH 400 0
DWIDTH 8 0
BBX 7 14 0 0
BITMAP
3E
1C
1C
1C
1C
38
38
38
38
70
70
70
70
F8
ENDCHAR

STARTCHAR J
ENCODING 74
SWIDTH 600 0
DWIDTH 11 0
BBX 11 14 0 0
BITMAP
03E0
01C0
01C0
01C0
01C0
0380
0380
0380
0380
6700
E700
C700
CE00
7C00
ENDCHAR

STARTCHAR K
ENCODING 75
SWIDTH 780 0
DWIDTH 15 0
BBX 15 14 0 0
BITMAP
3E3E
1C1C
1C38
1C70
1CE0
39C0
3BC0
3FE0
3CE0
78E0
7070
7070
7070
F8F8
ENDCHAR

STARTCHAR L
ENCODING 76
SWIDTH 660 0
DWIDTH 12 0
BBX 11 14 0 0
BITMAP
3E00
1C00
1C00
1C00
1C00
3800
3800
3800
3800
7000
7000
7020
7060
FFE0
ENDCHAR

STARTCHAR M
ENCODING 77
SWIDTH 960 0
DWIDTH 20 0
BBX 19 14 0 0
BITMAP
3F07E0
1F07C0
1B0DC0
1B0DC0
1B99C0
339B80
33B380
33B380
31E380
61E700
61C700
61C700
600700
F00F80
ENDCHAR

STARTCHAR N
ENCODING 78
SWIDTH 800 0
DWIDTH 17 0
BBX 16 14 0 0
BITMAP
3E0F
1E06
1F06
1F06
1B86
338C
31CC
31CC
30EC
60F8
6078
6078
6038
F038
ENDCHAR

STARTCHAR O
ENCODING 79
SWIDTH 860 0
DWIDTH 15 0
BBX 14 14 0 0
BITMAP
07E0
1E78
3838
701C
701C
E01C
E01C
E01C
E01C
E038
E038
7070
79E0
1F80
ENDCHAR

STARTCHAR P
ENCODING 80
SWIDTH 720 0
DWIDTH 14 0
BBX 13 14 0 0
BITMAP
3FF0
1C78
1C38
1C38
1C38
3870
39E0
3F80
3800
7000
7000
7000
7000
F800
ENDCHAR

STARTCHAR Q
ENCODING 81
SWIDTH 880 0
DWIDTH 15 0
BBX 14 16 0 -2
BITMAP
07E0
1E78
3838
701C
701C
E01C
E01C
E01C
E01C
E038
E238
7270
7FE0
1F80
01F0
0070
ENDCHAR

STARTCHAR R
ENCODING 82
SWIDTH 780 0
DWIDTH 14 0
BBX 13 14 0 0
BITMAP
3FF0
1C78
1C38
1C38
1C70
38E0
3BC0
3FE0
38E0
70E0
7070
7070
7070
F8F8
ENDCHAR

STARTCHAR S
ENCODING 83
SWIDTH 680 0
DWIDTH 13 0
BBX 12 14 0 0
BITMAP
0FE0
3870
3030
7020
7C00
7F00
3FC0
0FE0
03E0
00E0
C0E0
C0C0
E1C0
7F00
ENDCHAR

STARTCHAR T
ENCODING 84
SWIDTH 660 0
DWIDTH 11 0
BBX 11 14 0 0
BITMAP
FFE0
CE60
8E20
0E00
0E00
1C00
1C00
1C00
1C00
3800
3800
3800
3800
7C00
ENDCHAR

STARTCHAR U
ENCODING 85
SWIDTH 800 0
DWIDTH 15 0
BBX 14 14 0 0
BITMAP
7C3C
3818
3818
3818
3818
7030
7030
7030
7030
E060
E060
E060
F0C0
7F80
ENDCHAR

STARTCHAR V
ENCODING 86
SWIDTH 720 0
DWIDTH 14 0
BBX 14 14 0 0
BITMAP
F83C
7018
7018
7030
7030
3830
3860
3860
38C0
1CC0
1D80
1F80
0F00
0E00
ENDCHAR

STARTCHAR W
ENCODING 87
SWIDTH 1020 0
DWIDTH 19 0
BBX 19 14 0 0
BITMAP
F9F1E0
70E0C0
70E0C0
70E080
70E180
70E100
71E300
79F200
3B7600
3A7400
3A7400
3C7800
1C3800
183000
ENDCHAR

STARTCHAR X
ENCODING 88
SWIDTH 740 0
DWIDTH 15 0
BBX 15 14 0 0
BITMAP
3E1E
1C0C
0E18
0E30
0760
07C0
0380
03C0
07C0
0CE0
18E0
3070
6070
F0F8
ENDCHAR

STARTCHAR Y
ENCODING 89
SWIDTH 740 0
DWIDTH 14 0
BBX 14 14 1 0
BITMAP
F83C
7018
7030
3860
38C0
1D80
1F00
0E00
0E00
0E00
1C00
1C00
1C00
3E00
ENDCHAR

STARTCHAR Z
ENCODING 90
SWIDTH 620 0
DWIDTH 12 0
BBX 12 14 0 0
BITMAP
3FF0
3070
20F0
01E0
03C0
0780
0700
0E00
1E00
3C00
7800
F020
E0E0
FFC0
ENDCHAR

STARTCHAR bracketleft
ENCODING 91
SWIDTH 340 0
DWIDTH 8 0
BBX 8 17 0 -3
BITMAP
1F
1C
1C
1C
38
38
38
38
70
70
70
70
E0
E0
E0
E0
F8
ENDCHAR

STARTCHAR backslash
ENCODING 92
SWIDTH 660 0
DWIDTH 11 0
BBX 5 15 3 -1
BITMAP
80
80
C0
40
40
60
20
20
30
10
10
18
08
08
08
ENDCHAR

STARTCHAR bracketright
ENCODING 93
SWIDTH 340 0
DWIDTH 7 0
BBX 8 17 -2 -3
BITMAP
1F
07
07
07
0E
0E
0E
0E
1C
1C
1C
1C
38
38
38
38
F8
ENDCHAR

STARTCHAR asciicircum
ENCODING 94
SWIDTH 660 0
DWIDTH 12 0
BBX 9 9 1 5
BITMAP
0800
1C00
1C00
3600
3600
6300
6300
C180
C180
ENDCHAR

STARTCHAR underscore
ENCODING 95
SWIDTH 500 0
DWIDTH 9 0
BBX 9 2 -1 -3
BITMAP
FF80
FF80
ENDCHAR

STARTCHAR quoteleft
ENCODING 96
SWIDTH 320 0
DWIDTH 5 0
BBX 4 6 0 8
BITMAP
10
20
60
F0
F0
60
ENDCHAR

STARTCHAR a
ENCODING 97
SWIDTH 640 0
DWIDTH 12 0
BBX 11 9 0 0
BITMAP
1F60
79E0
70E0
F0E0
E1C0
E1C0
E1C0
73E0
3DC0
ENDCHAR

STARTCHAR b
ENCODING 98
SWIDTH 640 0
DWIDTH 12 0
BBX 11 14 0 0
BITMAP
1800
7800
3800
3800
3800
7780
79C0
70E0
70E0
E0E0
E1E0
E1C0
F3C0
EF00
ENDCHAR

STARTCHAR c
ENCODING 99
SWIDTH 540 0
DWIDTH 11 0
BBX 10 9 0 0
BITMAP
1F80
79C0
70C0
F000
E000
E000
E080
7380
3E00
ENDCHAR

STARTCHAR d
ENCODING 100
SWIDTH 680 0
DWIDTH 13 0
BBX 12 14 0 0
BITMAP
0030
00F0
0070
0070
0070
1EE0
79E0
70E0
F0E0
E0E0
E1C0
E1C0
73E0
3DC0
ENDCHAR

STARTCHAR e
ENCODING 101
SWIDTH 580 0
DWIDTH 11 0
BBX 10 9 0 0
BITMAP
1F80
79C0
71C0
F380
FE00
E000
E0C0
7380
3E00
ENDCHAR

STARTCHAR f
ENCODING 102
SWIDTH 420 0
DWIDTH 7 0
BBX 11 18 -2 -4
BITMAP
00E0
03E0
0300
0700
0700
1F80
0E00
0E00
0E00
0E00
1C00
1C00
1C00
1C00
1C00
1800
F800
E000
ENDCHAR

STARTCHAR g
ENCODING 103
SWIDTH 600 0
DWIDTH 12 0
BBX 13 13 -1 -4
BITMAP
0FF8
3CE0
3870
7870
70F0
70E0
39E0
1F80
03C0
00E0
70E0
E1C0
7F00
ENDCHAR

STARTCHAR h
ENCODING 104
SWIDTH 680 0
DWIDTH 11 0
BBX 10 14 0 0
BITMAP
1800
7800
3800
3800
3800
7780
7BC0
71C0
71C0
71C0
E380
E380
E3C0
E380
ENDCHAR

STARTCHAR i
ENCODING 105
SWIDTH 340 0
DWIDTH 7 0
BBX 5 13 1 0
BITMAP
38
38
38
00
30
F0
70
70
70
E0
E0
F0
E0
ENDCHAR

STARTCHAR j
ENCODING 106
SWIDTH 340 0
DWIDTH 7 0
BBX 8 17 -2 -4
BITMAP
07
07
07
00
06
1E
0E
0E
0E
1C
1C
1C
1C
1C
18
F8
E0
ENDCHAR

STARTCHAR k
ENCODING 107
SWIDTH 600 0
DWIDTH 11 0
BBX 10 14 0 0
BITMAP
1800
7800
3800
3800
3000
7180
73C0
7600
7C00
7E00
F700
E700
E3C0
E380
ENDCHAR

STARTCHAR l
ENCODING 108
SWIDTH 360 0
DWIDTH 7 0
BBX 5 14 1 0
BITMAP
18
78
38
38
38
70
70
70
70
E0
E0
E0
F0
E0
ENDCHAR

STARTCHAR m
ENCODING 109
SWIDTH 980 0
DWIDTH 17 0
BBX 16 9 0 0
BITMAP
679E
FBEF
71C7
71C7
71C7
E38E
E38E
E38F
E38E
ENDCHAR

STARTCHAR n
ENCODING 110
SWIDTH 680 0
DWIDTH 11 0
BBX 10 9 0 0
BITMAP
6780
FBC0
71C0
71C0
71C0
E380
E380
E3C0
E380
ENDCHAR

STARTCHAR o
ENCODING 111
SWIDTH 640 0
DWIDTH 12 0
BBX 11 9 0 0
BITMAP
1F80
79C0
70E0
F0E0
E0E0
E1E0
E1C0
73C0
3F00
ENDCHAR

STARTCHAR p
ENCODING 112
SWIDTH 660 0
DWIDTH 13 0
BBX 13 13 -1 -4
BITMAP
1DE0
3E70
1C38
1C38
3838
3878
3870
38F0
73C0
7000
7000
7000
F800
ENDCHAR

STARTCHAR q
ENCODING 113
SWIDTH 640 0
DWIDTH 12 0
BBX 11 13 0 -4
BITMAP
1EE0
79E0
70E0
F0E0
E1C0
E1C0
E1C0
73C0
3F80
0380
0380
0380
07C0
ENDCHAR

STARTCHAR r
ENCODING 114
SWIDTH 460 0
DWIDTH 9 0
BBX 8 9 1 0
BITMAP
77
FF
72
70
70
E0
E0
E0
E0
ENDCHAR

STARTCHAR s
ENCODING 115
SWIDTH 520 0
DWIDTH 11 0
BBX 10 9 0 0
BITMAP
0F80
39C0
70C0
7C00
3F00
0F80
C380
E700
7C00
ENDCHAR

STARTCHAR t
ENCODING 116
SWIDTH 420 0
DWIDTH 7 0
BBX 6 12 1 0
BITMAP
30
30
70
FC
70
70
70
E0
E0
E8
F0
E0
ENDCHAR

STARTCHAR u
ENCODING 117
SWIDTH 680 0
DWIDTH 11 0
BBX 10 9 0 0
BITMAP
71C0
F1C0
71C0
71C0
E380
E380
E380
F7C0
7B80
ENDCHAR

STARTCHAR v
ENCODING 118
SWIDTH 580 0
DWIDTH 11 0
BBX 9 9 1 0
BITMAP
7300
F380
7180
7180
E180
E300
E700
FE00
7800
ENDCHAR

STARTCHAR w
ENCODING 119
SWIDTH 840 0
DWIDTH 17 0
BBX 15 9 1 0
BITMAP
71CC
F1CE
71C6
71C6
E386
E38C
E79C
FDF8
78E0
ENDCHAR

STARTCHAR x
ENCODING 120
SWIDTH 580 0
DWIDTH 11 0
BBX 10 9 0 0
BITMAP
38C0
79C0
1F00
1E00
0E00
1E00
3700
E7C0
C380
ENDCHAR

STARTCHAR y
ENCODING 121
SWIDTH 560 0
DWIDTH 11 0
BBX 11 13 0 -4
BITMAP
70E0
F0C0
70C0
7180
7180
3980
3B00
3B00
1E00
0600
0C00
7C00
7000
ENDCHAR

STARTCHAR z
ENCODING 122
SWIDTH 500 0
DWIDTH 10 0
BBX 9 9 0 0
BITMAP
3F80
7380
6700
0E00
1C00
3800
7300
E700
FE00
ENDCHAR

STARTCHAR braceleft
ENCODING 123
SWIDTH 340 0
DWIDTH 7 0
BBX 8 17 0 -3
BITMAP
07
0C
1C
1C
38
38
38
30
C0
60
70
70
70
E0
E0
E0
78
ENDCHAR

STARTCHAR bar
ENCODING 124
SWIDTH 660 0
DWIDTH 12 0
BBX 1 14 5 0
BITMAP
80
80
80
80
80
80
80
80
80
80
80
80
80
80
ENDCHAR

STARTCHAR braceright
ENCODING 125
SWIDTH 340 0
DWIDTH 7 0
BBX 8 17 -3 -3
BITMAP
1E
07
07
07
0E
0E
0E
06
03
0C
1C
1C
1C
38
38
30
E0
ENDCHAR

STARTCHAR asciitilde
ENCODING 126
SWIDTH 660 0
DWIDTH 12 0
BBX 10 3 1 5
BITMAP
7880
FFC0
4780
ENDCHAR

STARTCHAR space
ENCODING 160
SWIDTH 340 0
DWIDTH 6 0
BBX 1 1 0 0
BITMAP
00
ENDCHAR

STARTCHAR exclamdown
ENCODING 161
SWIDTH 380 0
DWIDTH 7 0
BBX 6 14 0 -4
BITMAP
18
3C
3C
18
00
30
30
30
70
70
70
F0
F0
60
ENDCHAR

STARTCHAR cent
ENCODING 162
SWIDTH 660 0
DWIDTH 12 0
BBX 11 13 0 0
BITMAP
0300
0300
1FC0
78E0
7060
E000
E000
E000
E040
71C0
3F00
0C00
0C00
ENDCHAR

STARTCHAR sterling
ENCODING 163
SWIDTH 660 0
DWIDTH 12 0
BBX 11 14 0 0
BITMAP
07C0
1CE0
1C60
3800
3800
3800
3800
FF00
3800
3800
3000
6040
FFC0
CF80
ENDCHAR

STARTCHAR currency
ENCODING 164
SWIDTH 680 0
DWIDTH 12 0
BBX 10 10 1 2
BITMAP
DEC0
FFC0
6180
C0C0
C0C0
C0C0
C0C0
6180
FFC0
DEC0
ENDCHAR

STARTCHAR yen
ENCODING 165
SWIDTH 680 0
DWIDTH 12 0
BBX 13 14 0 0
BITMAP
F878
7030
7060
38C0
3980
1F00
7FE0
0E00
7FC0
0E00
1C00
1C00
1C00
3E00
ENDCHAR

STARTCHAR brokenbar
ENCODING 166
SWIDTH 660 0
DWIDTH 12 0
BBX 1 14 5 0
BITMAP
80
80
80
80
80
00
00
00
80
80
80
80
80
80
ENDCHAR

STARTCHAR section
ENCODING 167
SWIDTH 680 0
DWIDTH 14 0
BBX 13 17 0 -3
BITMAP
03F0
0E38
1C18
1C10
1C00
0F00
1FC0
33E0
70F0
7870
3E60
0F80
03C0
41C0
C1C0
E380
7E00
ENDCHAR

STARTCHAR dieresis
ENCODING 168
SWIDTH 520 0
DWIDTH 9 0
BBX 6 3 1 10
BITMAP
CC
CC
CC
ENDCHAR

STARTCHAR copyright
ENCODING 169
SWIDTH 840 0
DWIDTH 16 0
BBX 13 14 0 0
BITMAP
0F80
38E0
6030
4F90
D8D8
9048
9008
9008
9008
D8D8
4F90
6030
38E0
0F80
ENDCHAR

STARTCHAR ordfeminine
ENCODING 170
SWIDTH 440 0
DWIDTH 9 0
BBX 8 8 0 6
BITMAP
1B
37
63
66
6E
37
00
FE
ENDCHAR

STARTCHAR guillemotleft
ENCODING 171
SWIDTH 460 0
DWIDTH 9 0
BBX 8 6 0 2
BITMAP
1B
36
6C
D8
6C
36
ENDCHAR

STARTCHAR logicalnot
ENCODING 172
SWIDTH 660 0
DWIDTH 12 0
BBX 11 6 0 3
BITMAP
FFE0
FFE0
0060
0060
0060
0060
ENDCHAR

STARTCHAR hyphen
ENCODING 173
SWIDTH 300 0
DWIDTH 6 0
BBX 5 2 0 5
BITMAP
F8
F8
ENDCHAR

STARTCHAR registered
ENCODING 174
SWIDTH 840 0
DWIDTH 15 0
BBX 13 14 0 0
BITMAP
0F80
38E0
6030
5F90
C8D8
8848
8988
8F08
8888
C8D8
5C70
6030
38E0
0F80
ENDCHAR

STARTCHAR macron
ENCODING 175
SWIDTH 480 0
DWIDTH 9 0
BBX 6 2 1 10
BITMAP
FC
FC
ENDCHAR

STARTCHAR degree
ENCODING 176
SWIDTH 400 0
DWIDTH 7 0
BBX 6 6 1 8
BITMAP
78
CC
84
84
CC
78
ENDCHAR

STARTCHAR plusminus
ENCODING 177
SWIDTH 660 0
DWIDTH 12 0
BBX 10 11 0 1
BITMAP
0C00
0C00
0C00
FFC0
FFC0
0C00
0C00
0C00
0000
FFC0
FFC0
ENDCHAR

STARTCHAR twosuperior
ENCODING 178
SWIDTH 408 0
DWIDTH 7 0
BBX 7 8 0 6
BITMAP
3C
66
66
0C
18
30
7E
FC
ENDCHAR

STARTCHAR threesuperior
ENCODING 179
SWIDTH 408 0
DWIDTH 7 0
BBX 7 8 0 6
BITMAP
3C
66
06
1C
08
CC
CC
78
ENDCHAR

STARTCHAR acute
ENCODING 180
SWIDTH 320 0
DWIDTH 6 0
BBX 5 3 0 10
BITMAP
38
70
C0
ENDCHAR

STARTCHAR mu
ENCODING 181
SWIDTH 680 0
DWIDTH 11 0
BBX 12 13 -2 -4
BITMAP
1C70
3C70
1C70
1C70
38E0
38E0
38E0
7DF0
6EE0
6000
E000
E000
6000
ENDCHAR

STARTCHAR paragraph
ENCODING 182
SWIDTH 660 0
DWIDTH 12 0
BBX 13 17 0 -3
BITMAP
1FF8
7360
6360
C240
C240
C6C0
66C0
3EC0
0480
0480
0D80
0D80
0900
0900
1B00
1B00
1B00
ENDCHAR

STARTCHAR periodcentered
ENCODING 183
SWIDTH 340 0
DWIDTH 6 0
BBX 4 4 0 4
BITMAP
60
F0
F0
60
ENDCHAR

STARTCHAR cedilla
ENCODING 184
SWIDTH 540 0
DWIDTH 10 0
BBX 4 4 1 -4
BITMAP
60
30
30
E0
ENDCHAR

STARTCHAR onesuperior
ENCODING 185
SWIDTH 408 0
DWIDTH 7 0
BBX 6 8 0 6
BITMAP
18
78
18
18
30
30
30
FC
ENDCHAR

STARTCHAR ordmasculine
ENCODING 186
SWIDTH 440 0
DWIDTH 9 0
BBX 8 8 0 6
BITMAP
1E
33
63
63
66
3C
00
FE
ENDCHAR

STARTCHAR guillemotright
ENCODING 187
SWIDTH 460 0
DWIDTH 9 0
BBX 8 6 0 2
BITMAP
6C
36
1B
36
6C
D8
ENDCHAR

STARTCHAR onequarter
ENCODING 188
SWIDTH 1020 0
DWIDTH 18 0
BBX 16 14 0 0
BITMAP
1830
7830
1860
1860
30C0
30C0
3187
FD8F
0313
0326
0666
067F
0C0C
0C1E
ENDCHAR

STARTCHAR onehalf
ENCODING 189
SWIDTH 1020 0
DWIDTH 18 0
BBX 16 14 0 0
BITMAP
1830
7830
1860
1860
30C0
30C0
319E
FDB3
0333
0306
060C
0618
0C3F
0C7E
ENDCHAR

STARTCHAR threequarters
ENCODING 190
SWIDTH 1020 0
DWIDTH 18 0
BBX 16 14 0 0
BITMAP
3C30
6630
0660
1C60
08C0
CCC0
CD87
798F
0313
0326
0666
067F
0C0C
0C1E
ENDCHAR

STARTCHAR questiondown
ENCODING 191
SWIDTH 520 0
DWIDTH 10 0
BBX 9 14 0 -4
BITMAP
0300
0780
0780
0300
0000
0300
0600
1C00
7000
E000
E180
E180
7300
3E00
ENDCHAR

STARTCHAR Agrave
ENCODING 192
SWIDTH 760 0
DWIDTH 14 0
BBX 14 18 -1 0
BITMAP
0380
01C0
0060
0000
01C0
03C0
03E0
06E0
06E0
0CE0
0C70
1870
1FF0
3070
3038
6038
6038
F07C
ENDCHAR

STARTCHAR Aacute
ENCODING 193
SWIDTH 760 0
DWIDTH 14 0
BBX 14 18 -1 0
BITMAP
00E0
01C0
0300
0000
01C0
03C0
03E0
06E0
06E0
0CE0
0C70
1870
1FF0
3070
3038
6038
6038
F07C
ENDCHAR

STARTCHAR Acircumflex
ENCODING 194
SWIDTH 760 0
DWIDTH 14 0
BBX 14 18 -1 0
BITMAP
00C0
01C0
0360
0000
01C0
03C0
03E0
06E0
06E0
0CE0
0C70
1870
1FF0
3070
3038
6038
6038
F07C
ENDCHAR

STARTCHAR Atilde
ENCODING 195
SWIDTH 760 0
DWIDTH 14 0
BBX 14 18 -1 0
BITMAP
0190
03F0
0260
0000
01C0
03C0
03E0
06E0
06E0
0CE0
0C70
1870
1FF0
3070
3038
6038
6038
F07C
ENDCHAR

STARTCHAR Adieresis
ENCODING 196
SWIDTH 760 0
DWIDTH 14 0
BBX 14 18 -1 0
BITMAP
0330
0330
0330
0000
01C0
03C0
03E0
06E0
06E0
0CE0
0C70
1870
1FF0
3070
3038
6038
6038
F07C
ENDCHAR

STARTCHAR Aring
ENCODING 197
SWIDTH 760 0
DWIDTH 14 0
BBX 14 18 -1 0
BITMAP
01C0
0360
0360
01C0
01C0
03C0
03E0
06E0
06E0
0CE0
0C70
1870
1FF0
3070
3038
6038
6038
F07C
ENDCHAR

STARTCHAR AE
ENCODING 198
SWIDTH 1000 0
DWIDTH 19 0
BBX 20 14 -2 0
BITMAP
003FF0
007C30
00DC10
009C00
011C00
033840
063FC0
043840
0FF800
187000
307000
207020
607060
E0FFE0
ENDCHAR

STARTCHAR Ccedilla
ENCODING 199
SWIDTH 780 0
DWIDTH 14 0
BBX 13 18 0 -4
BITMAP
07F0
1E38
3818
7010
7000
E000
E000
E000
E000
E000
E000
7030
78E0
1F80
0400
0600
0200
0C00
ENDCHAR

STARTCHAR Egrave
ENCODING 200
SWIDTH 700 0
DWIDTH 13 0
BBX 12 18 0 0
BITMAP
0E00
0700
0180
0000
3FF0
1C30
1C10
1C00
1C00
3840
3FC0
3840
3800
7000
7000
7020
7060
FFE0
ENDCHAR

STARTCHAR Eacute
ENCODING 201
SWIDTH 700 0
DWIDTH 13 0
BBX 12 18 0 0
BITMAP
00E0
01C0
0300
0000
3FF0
1C30
1C10
1C00
1C00
3840
3FC0
3840
3800
7000
7000
7020
7060
FFE0
ENDCHAR

STARTCHAR Ecircumflex
ENCODING 202
SWIDTH 700 0
DWIDTH 13 0
BBX 12 18 0 0
BITMAP
0180
0380
06C0
0000
3FF0
1C30
1C10
1C00
1C00
3840
3FC0
3840
3800
7000
7000
7020
7060
FFE0
ENDCHAR

STARTCHAR Edieresis
ENCODING 203
SWIDTH 700 0
DWIDTH 13 0
BBX 12 18 0 0
BITMAP
0660
0660
0660
0000
3FF0
1C30
1C10
1C00
1C00
3840
3FC0
3840
3800
7000
7000
7020
7060
FFE0
ENDCHAR

STARTCHAR Igrave
ENCODING 204
SWIDTH 400 0
DWIDTH 8 0
BBX 7 18 0 0
BITMAP
38
1C
06
00
3E
1C
1C
1C
1C
38
38
38
38
70
70
70
70
F8
ENDCHAR

STARTCHAR Iacute
ENCODING 205
SWIDTH 400 0
DWIDTH 8 0
BBX 8 18 0 0
BITMAP
07
0E
18
00
3E
1C
1C
1C
1C
38
38
38
38
70
70
70
70
F8
ENDCHAR

STARTCHAR Icircumflex
ENCODING 206
SWIDTH 400 0
DWIDTH 8 0
BBX 8 18 0 0
BITMAP
06
0E
1B
00
3E
1C
1C
1C
1C
38
38
38
38
70
70
70
70
F8
ENDCHAR

STARTCHAR Idieresis
ENCODING 207
SWIDTH 400 0
DWIDTH 8 0
BBX 8 18 0 0
BITMAP
33
33
33
00
3E
1C
1C
1C
1C
38
38
38
38
70
70
70
70
F8
ENDCHAR

STARTCHAR Eth
ENCODING 208
SWIDTH 860 0
DWIDTH 16 0
BBX 15 14 0 0
BITMAP
3FF0
1C3C
1C1C
1C0E
180E
380E
FF0E
380E
380E
301C
701C
7038
70F0
FFC0
ENDCHAR

STARTCHAR Ntilde
ENCODING 209
SWIDTH 800 0
DWIDTH 17 0
BBX 16 18 0 0
BITMAP
00C8
01F8
0130
0000
3E0F
1E06
1F06
1F06
1B86
338C
31CC
31CC
30EC
60F8
6078
6078
6038
F038
ENDCHAR

STARTCHAR Ograve
ENCODING 210
SWIDTH 860 0
DWIDTH 15 0
BBX 14 18 0 0
BITMAP
0700
0380
00C0
0000
07E0
1E78
3838
701C
701C
E01C
E01C
E01C
E01C
E038
E038
7070
79E0
1F80
ENDCHAR

STARTCHAR Oacute
ENCODING 211
SWIDTH 860 0
DWIDTH 15 0
BBX 14 18 0 0
BITMAP
0070
00E0
0180
0000
07E0
1E78
3838
701C
701C
E01C
E01C
E01C
E01C
E038
E038
7070
79E0
1F80
ENDCHAR

STARTCHAR Ocircumflex
ENCODING 212
SWIDTH 860 0
DWIDTH 15 0
BBX 14 18 0 0
BITMAP
00C0
01C0
0360
0000
07E0
1E78
3838
701C
701C
E01C
E01C
E01C
E01C
E038
E038
7070
79E0
1F80
ENDCHAR

STARTCHAR Otilde
ENCODING 213
SWIDTH 860 0
DWIDTH 15 0
BBX 14 18 0 0
BITMAP
0320
07E0
04C0
0000
07E0
1E78
3838
701C
701C
E01C
E01C
E01C
E01C
E038
E038
7070
79E0
1F80
ENDCHAR

STARTCHAR Odieresis
ENCODING 214
SWIDTH 860 0
DWIDTH 15 0
BBX 14 18 0 0
BITMAP
0660
0660
0660
0000
07E0
1E78
3838
701C
701C
E01C
E01C
E01C
E01C
E038
E038
7070
79E0
1F80
ENDCHAR

STARTCHAR multiply
ENCODING 215
SWIDTH 660 0
DWIDTH 12 0
BBX 10 10 0 1
BITMAP
C0C0
E1C0
7380
3F00
1E00
1E00
3F00
7380
E1C0
C0C0
ENDCHAR

STARTCHAR Oslash
ENCODING 216
SWIDTH 860 0
DWIDTH 15 0
BBX 14 14 0 0
BITMAP
07E4
1E7C
3838
703C
707C
E0DC
E39C
E61C
EC1C
F838
F038
7070
F9E0
9F80
ENDCHAR

STARTCHAR Ugrave
ENCODING 217
SWIDTH 800 0
DWIDTH 15 0
BBX 14 18 0 0
BITMAP
0700
0380
00C0
0000
7C3C
3818
3818
3818
3818
7030
7030
7030
7030
E060
E060
E060
F0C0
7F80
ENDCHAR

STARTCHAR Uacute
ENCODING 218
SWIDTH 800 0
DWIDTH 15 0
BBX 14 18 0 0
BITMAP
0070
00E0
0180
0000
7C3C
3818
3818
3818
3818
7030
7030
7030
7030
E060
E060
E060
F0C0
7F80
ENDCHAR

STARTCHAR Ucircumflex
ENCODING 219
SWIDTH 800 0
DWIDTH 15 0
BBX 14 18 0 0
BITMAP
00C0
01C0
0360
0000
7C3C
3818
3818
3818
3818
7030
7030
7030
7030
E060
E060
E060
F0C0
7F80
ENDCHAR

STARTCHAR Udieresis
ENCODING 220
SWIDTH 800 0
DWIDTH 15 0
BBX 14 18 0 0
BITMAP
0660
0660
0660
0000
7C3C
3818
3818
3818
3818
7030
7030
7030
7030
E060
E060
E060
F0C0
7F80
ENDCHAR

STARTCHAR Yacute
ENCODING 221
SWIDTH 740 0
DWIDTH 14 0
BBX 14 18 0 0
BITMAP
0070
00E0
0180
0000
F83C
7018
7030
3860
38C0
1D80
1F00
0E00
0E00
0E00
1C00
1C00
1C00
3E00
ENDCHAR

STARTCHAR Thorn
ENCODING 222
SWIDTH 720 0
DWIDTH 14 0
BBX 12 14 0 0
BITMAP
3E00
1C00
1C00
1FE0
18F0
3870
3870
3870
30E0
73C0
7F00
7000
7000
F800
ENDCHAR

STARTCHAR germandbls
ENCODING 223
SWIDTH 640 0
DWIDTH 12 0
BBX 11 14 0 0
BITMAP
07C0
0CE0
1C60
1C60
1CC0
3980
3980
38C0
38E0
70E0
70E0
70C0
7580
F700
ENDCHAR

STARTCHAR agrave
ENCODING 224
SWIDTH 640 0
DWIDTH 12 0
BBX 11 13 0 0
BITMAP
1C00
0E00
0300
0000
1F60
79E0
70E0
F0E0
E1C0
E1C0
E1C0
73E0
3DC0
ENDCHAR

STARTCHAR aacute
ENCODING 225
SWIDTH 640 0
DWIDTH 12 0
BBX 11 13 0 0
BITMAP
01C0
0380
0600
0000
1F60
79E0
70E0
F0E0
E1C0
E1C0
E1C0
73E0
3DC0
ENDCHAR

STARTCHAR acircumflex
ENCODING 226
SWIDTH 640 0
DWIDTH 12 0
BBX 11 13 0 0
BITMAP
0300
0700
0D80
0000
1F60
79E0
70E0
F0E0
E1C0
E1C0
E1C0
73E0
3DC0
ENDCHAR

STARTCHAR atilde
ENCODING 227
SWIDTH 640 0
DWIDTH 12 0
BBX 11 13 0 0
BITMAP
0640
0FC0
0980
0000
1F60
79E0
70E0
F0E0
E1C0
E1C0
E1C0
73E0
3DC0
ENDCHAR

STARTCHAR adieresis
ENCODING 228
SWIDTH 640 0
DWIDTH 12 0
BBX 11 13 0 0
BITMAP
1980
1980
1980
0000
1F60
79E0
70E0
F0E0
E1C0
E1C0
E1C0
73E0
3DC0
ENDCHAR

STARTCHAR aring
ENCODING 229
SWIDTH 640 0
DWIDTH 12 0
BBX 11 14 0 0
BITMAP
0700
0D80
0D80
0700
0000
1F60
79E0
70E0
F0E0
E1C0
E1C0
E1C0
73E0
3DC0
ENDCHAR

STARTCHAR ae
ENCODING 230
SWIDTH 900 0
DWIDTH 17 0
BBX 16 9 0 0
BITMAP
3E7E
67E7
03C7
03CE
3FF8
E380
C383
E7CE
7CF8
ENDCHAR

STARTCHAR ccedilla
ENCODING 231
SWIDTH 540 0
DWIDTH 11 0
BBX 10 13 0 -4
BITMAP
1F80
79C0
70C0
F000
E000
E000
E080
7380
3E00
0800
0C00
0400
1800
ENDCHAR

STARTCHAR egrave
ENCODING 232
SWIDTH 580 0
DWIDTH 11 0
BBX 10 13 0 0
BITMAP
3800
1C00
0600
0000
1F80
79C0
71C0
F380
FE00
E000
E0C0
7380
3E00
ENDCHAR

STARTCHAR eacute
ENCODING 233
SWIDTH 580 0
DWIDTH 11 0
BBX 10 13 0 0
BITMAP
0380
0700
0C00
0000
1F80
79C0
71C0
F380
FE00
E000
E0C0
7380
3E00
ENDCHAR

STARTCHAR ecircumflex
ENCODING 234
SWIDTH 580 0
DWIDTH 11 0
BBX 10 13 0 0
BITMAP
0600
0E00
1B00
0000
1F80
79C0
71C0
F380
FE00
E000
E0C0
7380
3E00
ENDCHAR

STARTCHAR edieresis
ENCODING 235
SWIDTH 580 0
DWIDTH 11 0
BBX 10 13 0 0
BITMAP
1980
1980
1980
0000
1F80
79C0
71C0
F380
FE00
E000
E0C0
7380
3E00
ENDCHAR

STARTCHAR igrave
ENCODING 236
SWIDTH 340 0
DWIDTH 7 0
BBX 5 13 1 0
BITMAP
E0
70
18
00
30
F0
70
70
70
E0
E0
F0
E0
ENDCHAR

STARTCHAR iacute
ENCODING 237
SWIDTH 340 0
DWIDTH 7 0
BBX 6 13 1 0
BITMAP
1C
38
60
00
30
F0
70
70
70
E0
E0
F0
E0
ENDCHAR

STARTCHAR icircumflex
ENCODING 238
SWIDTH 340 0
DWIDTH 7 0
BBX 6 13 1 0
BITMAP
18
38
6C
00
30
F0
70
70
70
E0
E0
F0
E0
ENDCHAR

STARTCHAR idieresis
ENCODING 239
SWIDTH 340 0
DWIDTH 7 0
BBX 6 13 1 0
BITMAP
CC
CC
CC
00
30
F0
70
70
70
E0
E0
F0
E0
ENDCHAR

STARTCHAR eth
ENCODING 240
SWIDTH 640 0
DWIDTH 12 0
BBX 11 14 0 0
BITMAP
E300
1C00
1E00
6300
0180
1FC0
79C0
70E0
F0E0
E0E0
E1E0
E1C0
73C0
3F00
ENDCHAR

STARTCHAR ntilde
ENCODING 241
SWIDTH 680 0
DWIDTH 11 0
BBX 10 13 0 0
BITMAP
0C80
1F80
1300
0000
6780
FBC0
71C0
71C0
71C0
E380
E380
E3C0
E380
ENDCHAR

STARTCHAR ograve
ENCODING 242
SWIDTH 640 0
DWIDTH 12 0
BBX 11 13 0 0
BITMAP
1C00
0E00
0300
0000
1F80
79C0
70E0
F0E0
E0E0
E1E0
E1C0
73C0
3F00
ENDCHAR

STARTCHAR oacute
ENCODING 243
SWIDTH 640 0
DWIDTH 12 0
BBX 11 13 0 0
BITMAP
0380
0700
0C00
0000
1F80
79C0
70E0
F0E0
E0E0
E1E0
E1C0
73C0
3F00
ENDCHAR

STARTCHAR ocircumflex
ENCODING 244
SWIDTH 640 0
DWIDTH 12 0
BBX 11 13 0 0
BITMAP
0300
0700
0D80
0000
1F80
79C0
70E0
F0E0
E0E0
E1E0
E1C0
73C0
3F00
ENDCHAR

STARTCHAR otilde
ENCODING 245
SWIDTH 640 0
DWIDTH 12 0
BBX 11 13 0 0
BITMAP
0C80
1F80
1300
0000
1F80
79C0
70E0
F0E0
E0E0
E1E0
E1C0
73C0
3F00
ENDCHAR

STARTCHAR odieresis
ENCODING 246
SWIDTH 640 0
DWIDTH 12 0
BBX 11 13 0 0
BITMAP
1980
1980
1980
0000
1F80
79C0
70E0
F0E0
E0E0
E1E0
E1C0
73C0
3F00
ENDCHAR

STARTCHAR divide
ENCODING 247
SWIDTH 660 0
DWIDTH 12 0
BBX 10 10 0 1
BITMAP
0C00
0C00
0000
0000
FFC0
FFC0
0000
0000
0C00
0C00
ENDCHAR

STARTCHAR oslash
ENCODING 248
SWIDTH 640 0
DWIDTH 12 0
BBX 12 10 -1 0
BITMAP
0030
0FE0
3CE0
39F0
7370
7670
7CF0
78E0
79E0
DF80
ENDCHAR

STARTCHAR ugrave
ENCODING 249
SWIDTH 680 0
DWIDTH 11 0
BBX 10 13 0 0
BITMAP
3800
1C00
0600
0000
71C0
F1C0
71C0
71C0
E380
E380
E380
F7C0
7B80
ENDCHAR

STARTCHAR uacute
ENCODING 250
SWIDTH 680 0
DWIDTH 11 0
BBX 10 13 0 0
BITMAP
0380
0700
0C00
0000
71C0
F1C0
71C0
71C0
E380
E380
E380
F7C0
7B80
ENDCHAR

STARTCHAR ucircumflex
ENCODING 251
SWIDTH 680 0
DWIDTH 11 0
BBX 10 13 0 0
BITMAP
0600
0E00
1B00
0000
71C0
F1C0
71C0
71C0
E380
E380
E380
F7C0
7B80
ENDCHAR

STARTCHAR udieresis
ENCODING 252
SWIDTH 680 0
DWIDTH 11 0
BBX 10 13 0 0
BITMAP
1980
1980
1980
0000
71C0
F1C0
71C0
71C0
E380
E380
E380
F7C0
7B80
ENDCHAR

STARTCHAR yacute
ENCODING 253
SWIDTH 560 0
DWIDTH 11 0
BBX 10 17 0 -4
BITMAP
0380
0700
0C00
0000
70C0
F0C0
70C0
7180
7180
3980
3B00
3B00
1E00
0600
0C00
7C00
7000
ENDCHAR

STARTCHAR thorn
ENCODING 254
SWIDTH 660 0
DWIDTH 13 0
BBX 13 18 -1 -4
BITMAP
0600
1E00
0E00
0E00
0C00
1DE0
1E70
1C38
1C38
3838
3878
3870
38F0
73C0
7000
7000
7000
F800
ENDCHAR

STARTCHAR ydieresis
ENCODING 255
SWIDTH 560 0
DWIDTH 11 0
BBX 10 17 0 -4
BITMAP
1980
1980
1980
0000
70C0
F0C0
70C0
7180
7180
3980
3B00
3B00
1E00
0600
0C00
7C00
7000
ENDCHAR
ENDFONT
